<svg version="1.1" id="Layer_1" xmlns="http://www.w3.org/2000/svg" xmlns:xlink="http://www.w3.org/1999/xlink" x="0px" y="0px"
	 width="100%" viewBox="0 0 225 225" enable-background="new 0 0 225 225" xml:space="preserve">
<path fill="#017C80" opacity="1.000000" stroke="none" 
	d="
M101.000000,1.000000 
	C109.020897,1.000000 117.041801,1.000000 125.701332,1.363250 
	C173.089340,7.505499 210.180405,39.819225 222.273102,85.364777 
	C223.647552,90.541428 224.763947,95.786606 226.000000,101.000000 
	C226.000000,109.354233 226.000000,117.708466 225.640900,126.693359 
	C224.920258,129.111557 224.563583,130.900116 224.196442,132.686523 
	C214.699799,178.894791 187.290695,208.697327 142.114380,222.131866 
	C136.827072,223.704208 131.375443,224.724030 126.000000,226.000000 
	C117.645767,226.000000 109.291534,226.000000 100.306602,225.640884 
	C99.356224,225.194916 99.041153,225.081818 98.716225,225.024918 
	C50.024288,216.497879 18.488329,188.692184 4.560201,141.157928 
	C3.192882,136.491531 2.178306,131.721786 1.000000,127.000000 
	C1.000000,118.312439 1.000000,109.624870 1.359137,100.306747 
	C1.805045,99.356529 1.918767,99.041512 1.974770,98.716553 
	C10.113189,51.493710 36.792801,20.234013 82.485497,5.502077 
	C88.514160,3.558356 94.821648,2.479442 101.000000,1.000000 
M87.500000,100.000961 
	C74.001907,100.001320 60.503693,99.967163 47.005783,100.016708 
	C40.333683,100.041191 34.959583,103.710960 33.063984,109.340736 
	C30.070370,118.231522 36.865726,126.951950 47.013233,126.975365 
	C75.342461,127.040726 103.671944,126.998878 132.001328,126.998970 
	C147.999100,126.999016 163.996948,127.029510 179.994583,126.983078 
	C186.666077,126.963715 192.051270,123.281570 193.936493,117.659111 
	C196.921112,108.757835 190.134109,100.045685 179.987198,100.024666 
	C149.491577,99.961487 118.995750,100.001320 87.500000,100.000961 
z"/>
<path fill="#FEFEFE" opacity="1.000000" stroke="none" 
	d="
M226.000000,100.531342 
	C224.763947,95.786606 223.647552,90.541428 222.273102,85.364777 
	C210.180405,39.819225 173.089340,7.505499 126.169983,1.363250 
	C159.260269,1.000000 192.520523,1.000000 226.000000,1.000000 
	C226.000000,34.020573 226.000000,67.041626 226.000000,100.531342 
z"/>
<path fill="#FEFEFE" opacity="1.000000" stroke="none" 
	d="
M100.531342,1.000000 
	C94.821648,2.479442 88.514160,3.558356 82.485497,5.502077 
	C36.792801,20.234013 10.113189,51.493710 1.974770,98.716553 
	C1.918767,99.041512 1.805045,99.356529 1.359137,99.838089 
	C1.000000,67.072693 1.000000,34.145393 1.000000,1.000000 
	C34.020573,1.000000 67.041626,1.000000 100.531342,1.000000 
z"/>
<path fill="#FEFEFE" opacity="1.000000" stroke="none" 
	d="
M126.468658,226.000000 
	C131.375443,224.724030 136.827072,223.704208 142.114380,222.131866 
	C187.290695,208.697327 214.699799,178.894791 224.196442,132.686523 
	C224.563583,130.900116 224.920258,129.111557 225.640900,127.162003 
	C226.000000,159.927292 226.000000,192.854599 226.000000,226.000000 
	C192.979431,226.000000 159.958374,226.000000 126.468658,226.000000 
z"/>
<path fill="#FEFEFE" opacity="1.000000" stroke="none" 
	d="
M1.000000,127.468658 
	C2.178306,131.721786 3.192882,136.491531 4.560201,141.157928 
	C18.488329,188.692184 50.024288,216.497879 98.716225,225.024918 
	C99.041153,225.081818 99.356224,225.194916 99.837952,225.640884 
	C67.073067,226.000000 34.146137,226.000000 1.000000,226.000000 
	C1.000000,193.312759 1.000000,160.625046 1.000000,127.468658 
z"/>
<path fill="#FEFFFF" opacity="1.000000" stroke="none" 
	d="
M88.000000,100.000961 
	C118.995750,100.001320 149.491577,99.961487 179.987198,100.024666 
	C190.134109,100.045685 196.921112,108.757835 193.936493,117.659111 
	C192.051270,123.281570 186.666077,126.963715 179.994583,126.983078 
	C163.996948,127.029510 147.999100,126.999016 132.001328,126.998970 
	C103.671944,126.998878 75.342461,127.040726 47.013233,126.975365 
	C36.865726,126.951950 30.070370,118.231522 33.063984,109.340736 
	C34.959583,103.710960 40.333683,100.041191 47.005783,100.016708 
	C60.503693,99.967163 74.001907,100.001320 88.000000,100.000961 
z"/>
</svg>