<svg xmlns="http://www.w3.org/2000/svg" xmlns:xlink="http://www.w3.org/1999/xlink" id="Layer_1" x="0px" y="0px" width="100%" viewBox="0 0 225 225" xml:space="preserve"><path fill="#FDFDFD" opacity="1.000000" stroke="none" d="M126.000000,226.000000  C84.000000,226.000000 42.500004,226.000000 1.000005,226.000000  C1.000004,151.000000 1.000004,76.000015 1.000002,1.000016  C75.999992,1.000010 150.999985,1.000010 225.999969,1.000005  C225.999985,75.999985 225.999985,150.999969 226.000000,225.999969  C192.833328,226.000000 159.666672,226.000000 126.000000,226.000000 M103.553650,5.886287  C100.820084,6.300081 98.060127,6.586581 95.357010,7.147186  C65.453629,13.348890 42.392380,30.088224 24.804199,54.401081  C13.615661,69.867447 7.117327,87.270622 5.515876,106.686218  C3.826167,127.171822 6.842124,146.613831 16.798948,164.364822  C34.686333,196.254379 61.969734,215.740128 98.462967,220.221252  C143.261597,225.722198 178.879837,209.268631 204.372543,171.966278  C215.240524,156.063644 219.928757,137.822876 220.986923,118.756920  C221.741333,105.163689 219.840408,91.976883 215.451660,78.832001  C211.471680,66.911453 206.480026,55.750042 198.680618,46.107094  C183.072754,26.810009 163.982056,12.886133 138.957886,7.727635  C127.407295,5.346593 116.053055,4.580722 103.553650,5.886287 z"></path><path fill="#C61F13" opacity="1.000000" stroke="none" d="M103.998093,5.836075  C116.053055,4.580722 127.407295,5.346593 138.957886,7.727635  C163.982056,12.886133 183.072754,26.810009 198.680618,46.107094  C206.480026,55.750042 211.471680,66.911453 215.451660,78.832001  C219.840408,91.976883 221.741333,105.163689 220.986923,118.756920  C219.928757,137.822876 215.240524,156.063644 204.372543,171.966278  C178.879837,209.268631 143.261597,225.722198 98.462967,220.221252  C61.969734,215.740128 34.686333,196.254379 16.798948,164.364822  C6.842124,146.613831 3.826167,127.171822 5.515876,106.686218  C7.117327,87.270622 13.615661,69.867447 24.804199,54.401081  C42.392380,30.088224 65.453629,13.348890 95.357010,7.147186  C98.060127,6.586581 100.820084,6.300081 103.998093,5.836075 M137.592499,70.032959  C129.278549,77.771553 120.964607,85.510155 112.446327,93.438942  C103.951233,85.349930 94.479126,76.330605 85.307228,67.597130  C78.594948,73.939552 72.250465,79.934448 65.356705,86.448349  C75.434143,96.016449 85.105904,105.199379 95.070206,114.660065  C85.512566,124.622917 76.066673,134.469284 66.575150,144.363235  C73.179832,150.446579 79.752670,156.500595 86.460388,162.678848  C96.146149,152.498291 105.257965,142.921005 114.406410,133.305222  C124.399742,142.557739 134.016693,151.461777 143.959763,160.667770  C150.176178,154.064163 156.135208,147.733978 162.235916,141.253281  C152.403839,131.792618 142.976532,122.721443 133.355042,113.463417  C142.854660,103.394585 152.025192,93.674553 160.247849,84.959213  C154.022034,78.195015 148.207413,71.877556 141.658051,64.761818  C140.273895,66.579872 139.167953,68.032516 137.592499,70.032959 z"></path><path fill="#FBFCFC" opacity="1.000000" stroke="none" d="M137.827240,69.759064  C139.167953,68.032516 140.273895,66.579872 141.658051,64.761818  C148.207413,71.877556 154.022034,78.195015 160.247849,84.959213  C152.025192,93.674553 142.854660,103.394585 133.355042,113.463417  C142.976532,122.721443 152.403839,131.792618 162.235916,141.253281  C156.135208,147.733978 150.176178,154.064163 143.959763,160.667770  C134.016693,151.461777 124.399742,142.557739 114.406410,133.305222  C105.257965,142.921005 96.146149,152.498291 86.460388,162.678848  C79.752670,156.500595 73.179832,150.446579 66.575150,144.363235  C76.066673,134.469284 85.512566,124.622917 95.070206,114.660065  C85.105904,105.199379 75.434143,96.016449 65.356705,86.448349  C72.250465,79.934448 78.594948,73.939552 85.307228,67.597130  C94.479126,76.330605 103.951233,85.349930 112.446327,93.438942  C120.964607,85.510155 129.278549,77.771553 137.827240,69.759064 z"></path></svg>