<svg xmlns="http://www.w3.org/2000/svg" xmlns:xlink="http://www.w3.org/1999/xlink" id="Layer_1" x="0px" y="0px" width="100%" viewBox="0 0 225 225" xml:space="preserve"><path fill="#FEFFFE" opacity="1.000000" stroke="none" d="M124.000000,226.000000  C82.666672,226.000000 41.833340,226.000000 1.000005,226.000000  C1.000004,151.000000 1.000004,76.000015 1.000002,1.000015  C75.999992,1.000010 150.999985,1.000010 225.999969,1.000005  C225.999985,75.999985 225.999985,150.999969 226.000000,225.999969  C192.166672,226.000000 158.333328,226.000000 124.000000,226.000000 M105.430168,9.085355  C103.616165,9.321323 101.802620,9.560927 99.988083,9.792731  C42.724308,17.108135 2.201900,69.640823 9.763516,126.759521  C17.588457,185.867294 71.773140,226.311157 130.484360,216.866486  C172.386566,210.125824 206.735672,177.569885 215.815063,135.990402  C224.983566,94.002747 207.503265,50.039539 171.743088,26.575951  C153.608368,14.677087 133.904800,7.407476 111.612587,9.875544  C109.893593,10.065862 108.079918,9.401088 105.430168,9.085355 z"></path><path fill="#8DC63F" opacity="1.000000" stroke="none" d="M105.870209,9.109556  C108.079918,9.401088 109.893593,10.065862 111.612587,9.875544  C133.904800,7.407476 153.608368,14.677087 171.743088,26.575951  C207.503265,50.039539 224.983566,94.002747 215.815063,135.990402  C206.735672,177.569885 172.386566,210.125824 130.484360,216.866486  C71.773140,226.311157 17.588457,185.867294 9.763516,126.759521  C2.201900,69.640823 42.724308,17.108135 99.988083,9.792731  C101.802620,9.560927 103.616165,9.321323 105.870209,9.109556 M130.798019,96.543747  C130.603012,96.268158 130.342102,96.088005 129.873260,95.074516  C129.873260,83.853378 129.873260,72.632240 129.873260,61.409554  C118.608887,61.409554 108.081619,61.409554 96.984726,61.409554  C96.984726,73.162758 96.984726,84.583015 96.543755,96.201996  C96.268158,96.396988 96.088005,96.657898 95.074516,97.126732  C83.853371,97.126732 72.632225,97.126732 61.409561,97.126732  C61.409561,108.391129 61.409561,118.918404 61.409561,130.015289  C73.162773,130.015289 84.583031,130.015289 96.202042,130.456238  C96.397011,130.731842 96.657906,130.912003 97.126740,131.925507  C97.126740,143.146637 97.126740,154.367783 97.126740,165.590439  C108.391121,165.590439 118.918350,165.590439 130.015289,165.590439  C130.015289,153.836716 130.015289,142.416718 130.456253,130.797974  C130.731842,130.602997 130.912003,130.342102 131.925507,129.873276  C143.146652,129.873276 154.367798,129.873276 165.590439,129.873276  C165.590439,118.608871 165.590439,108.081642 165.590439,96.984726  C153.837234,96.984726 142.416977,96.984726 130.798019,96.543747 z"></path><path fill="#FDFEFC" opacity="1.000000" stroke="none" d="M96.003288,130.015289  C84.583031,130.015289 73.162773,130.015289 61.409561,130.015289  C61.409561,118.918404 61.409561,108.391129 61.409561,97.126732  C72.632225,97.126732 83.853371,97.126732 95.827560,97.057777  C96.715317,96.660309 96.850021,96.331787 96.984726,96.003273  C96.984726,84.583015 96.984726,73.162758 96.984726,61.409554  C108.081619,61.409554 118.608887,61.409554 129.873260,61.409554  C129.873260,72.632240 129.873260,83.853378 129.942230,95.827560  C130.339691,96.715317 130.668213,96.850021 130.996719,96.984726  C142.416977,96.984726 153.837234,96.984726 165.590439,96.984726  C165.590439,108.081642 165.590439,118.608871 165.590439,129.873276  C154.367798,129.873276 143.146652,129.873276 131.172455,129.942230  C130.284698,130.339691 130.149994,130.668198 130.015289,130.996719  C130.015289,142.416718 130.015289,153.836716 130.015289,165.590439  C118.918350,165.590439 108.391121,165.590439 97.126740,165.590439  C97.126740,154.367783 97.126740,143.146637 97.057785,131.172455  C96.660316,130.284698 96.331802,130.149994 96.003288,130.015289 z"></path><path fill="#86C32C" opacity="1.000000" stroke="none" d="M96.764236,96.102631  C96.850021,96.331787 96.715317,96.660309 96.291954,96.986771  C96.088005,96.657898 96.268158,96.396988 96.764236,96.102631 z"></path><path fill="#86C32C" opacity="1.000000" stroke="none" d="M130.897369,96.764236  C130.668213,96.850021 130.339691,96.715317 130.013245,96.291962  C130.342102,96.088005 130.603012,96.268158 130.897369,96.764236 z"></path><path fill="#86C32C" opacity="1.000000" stroke="none" d="M96.102661,130.235764  C96.331802,130.149994 96.660316,130.284698 96.986778,130.708069  C96.657906,130.912003 96.397011,130.731842 96.102661,130.235764 z"></path><path fill="#86C32C" opacity="1.000000" stroke="none" d="M130.235779,130.897339  C130.149994,130.668198 130.284698,130.339691 130.708069,130.013229  C130.912003,130.342102 130.731842,130.602997 130.235779,130.897339 z"></path></svg>